# xmcd
#
# Track frame offsets:
# 150
# 14872
# 36132
# 51270
# 63000
# 78312
# 96720
# 111990
# 124485
# 138585
# 152530
# 169707
#
# Disc length: 2475 seconds
#
# Revision: 0
# Processed by: cddbd v1.5.1PL0 Copyright (c) Steve Scherf et al.
# Submitted via: MacMP3 Pro 5.0 (http://mp3.act2.co.jp/)
#
DISCID=a909a90c
DTITLE=Guy Van Duser - Stride Guitar
DYEAR=1900
DGENRE=
TTITLE0=That Certain Feeling
TTITLE1=Snowy Morning Blues
TTITLE2=Black Beauty
TTITLE3=Alligator Crawl
TTITLE4=Viper's Drag
TTITLE5=Stars Fell on Alabama
TTITLE6=Miss Brown to You
TTITLE7=I Can't Give you Anything but Love/Goody-Goody
TTITLE8=Never Gonna Dance
TTITLE9=Seneca Slide
TTITLE10=It's Not True
TTITLE11=When I See an Elephant Fly
EXTD=
EXTT0=
EXTT1=
EXTT2=
EXTT3=
EXTT4=
EXTT5=
EXTT6=
EXTT7=
EXTT8=
EXTT9=
EXTT10=
EXTT11=
PLAYORDER=
